%TF.GenerationSoftware,KiCad,Pcbnew,9.0.8*%
%TF.CreationDate,2026-04-24T00:15:39+07:00*%
%TF.ProjectId,______,14181f1b-1e1c-42e6-9b69-6361645f7063,rev?*%
%TF.SameCoordinates,Original*%
%TF.FileFunction,Legend,Top*%
%TF.FilePolarity,Positive*%
%FSLAX46Y46*%
G04 Gerber Fmt 4.6, Leading zero omitted, Abs format (unit mm)*
G04 Created by KiCad (PCBNEW 9.0.8) date 2026-04-24 00:15:39*
%MOMM*%
%LPD*%
G01*
G04 APERTURE LIST*
%ADD10C,0.150000*%
%ADD11C,0.120000*%
G04 APERTURE END LIST*
D10*
X117465819Y-74009094D02*
X116465819Y-74009094D01*
X116465819Y-74009094D02*
X116465819Y-73770999D01*
X116465819Y-73770999D02*
X116513438Y-73628142D01*
X116513438Y-73628142D02*
X116608676Y-73532904D01*
X116608676Y-73532904D02*
X116703914Y-73485285D01*
X116703914Y-73485285D02*
X116894390Y-73437666D01*
X116894390Y-73437666D02*
X117037247Y-73437666D01*
X117037247Y-73437666D02*
X117227723Y-73485285D01*
X117227723Y-73485285D02*
X117322961Y-73532904D01*
X117322961Y-73532904D02*
X117418200Y-73628142D01*
X117418200Y-73628142D02*
X117465819Y-73770999D01*
X117465819Y-73770999D02*
X117465819Y-74009094D01*
X117465819Y-73009094D02*
X116465819Y-73009094D01*
X116465819Y-73009094D02*
X116465819Y-72770999D01*
X116465819Y-72770999D02*
X116513438Y-72628142D01*
X116513438Y-72628142D02*
X116608676Y-72532904D01*
X116608676Y-72532904D02*
X116703914Y-72485285D01*
X116703914Y-72485285D02*
X116894390Y-72437666D01*
X116894390Y-72437666D02*
X117037247Y-72437666D01*
X117037247Y-72437666D02*
X117227723Y-72485285D01*
X117227723Y-72485285D02*
X117322961Y-72532904D01*
X117322961Y-72532904D02*
X117418200Y-72628142D01*
X117418200Y-72628142D02*
X117465819Y-72770999D01*
X117465819Y-72770999D02*
X117465819Y-73009094D01*
X117465819Y-71485285D02*
X117465819Y-72056713D01*
X117465819Y-71770999D02*
X116465819Y-71770999D01*
X116465819Y-71770999D02*
X116608676Y-71866237D01*
X116608676Y-71866237D02*
X116703914Y-71961475D01*
X116703914Y-71961475D02*
X116751533Y-72056713D01*
X84857333Y-62560580D02*
X84809714Y-62608200D01*
X84809714Y-62608200D02*
X84666857Y-62655819D01*
X84666857Y-62655819D02*
X84571619Y-62655819D01*
X84571619Y-62655819D02*
X84428762Y-62608200D01*
X84428762Y-62608200D02*
X84333524Y-62512961D01*
X84333524Y-62512961D02*
X84285905Y-62417723D01*
X84285905Y-62417723D02*
X84238286Y-62227247D01*
X84238286Y-62227247D02*
X84238286Y-62084390D01*
X84238286Y-62084390D02*
X84285905Y-61893914D01*
X84285905Y-61893914D02*
X84333524Y-61798676D01*
X84333524Y-61798676D02*
X84428762Y-61703438D01*
X84428762Y-61703438D02*
X84571619Y-61655819D01*
X84571619Y-61655819D02*
X84666857Y-61655819D01*
X84666857Y-61655819D02*
X84809714Y-61703438D01*
X84809714Y-61703438D02*
X84857333Y-61751057D01*
X85809714Y-62655819D02*
X85238286Y-62655819D01*
X85524000Y-62655819D02*
X85524000Y-61655819D01*
X85524000Y-61655819D02*
X85428762Y-61798676D01*
X85428762Y-61798676D02*
X85333524Y-61893914D01*
X85333524Y-61893914D02*
X85238286Y-61941533D01*
X74197819Y-93694094D02*
X73197819Y-93694094D01*
X73197819Y-93694094D02*
X73197819Y-93455999D01*
X73197819Y-93455999D02*
X73245438Y-93313142D01*
X73245438Y-93313142D02*
X73340676Y-93217904D01*
X73340676Y-93217904D02*
X73435914Y-93170285D01*
X73435914Y-93170285D02*
X73626390Y-93122666D01*
X73626390Y-93122666D02*
X73769247Y-93122666D01*
X73769247Y-93122666D02*
X73959723Y-93170285D01*
X73959723Y-93170285D02*
X74054961Y-93217904D01*
X74054961Y-93217904D02*
X74150200Y-93313142D01*
X74150200Y-93313142D02*
X74197819Y-93455999D01*
X74197819Y-93455999D02*
X74197819Y-93694094D01*
X74197819Y-92694094D02*
X73197819Y-92694094D01*
X73197819Y-92694094D02*
X73197819Y-92455999D01*
X73197819Y-92455999D02*
X73245438Y-92313142D01*
X73245438Y-92313142D02*
X73340676Y-92217904D01*
X73340676Y-92217904D02*
X73435914Y-92170285D01*
X73435914Y-92170285D02*
X73626390Y-92122666D01*
X73626390Y-92122666D02*
X73769247Y-92122666D01*
X73769247Y-92122666D02*
X73959723Y-92170285D01*
X73959723Y-92170285D02*
X74054961Y-92217904D01*
X74054961Y-92217904D02*
X74150200Y-92313142D01*
X74150200Y-92313142D02*
X74197819Y-92455999D01*
X74197819Y-92455999D02*
X74197819Y-92694094D01*
X73531152Y-91265523D02*
X74197819Y-91265523D01*
X73150200Y-91503618D02*
X73864485Y-91741713D01*
X73864485Y-91741713D02*
X73864485Y-91122666D01*
X115998666Y-79751819D02*
X115998666Y-80466104D01*
X115998666Y-80466104D02*
X115951047Y-80608961D01*
X115951047Y-80608961D02*
X115855809Y-80704200D01*
X115855809Y-80704200D02*
X115712952Y-80751819D01*
X115712952Y-80751819D02*
X115617714Y-80751819D01*
X116427238Y-79847057D02*
X116474857Y-79799438D01*
X116474857Y-79799438D02*
X116570095Y-79751819D01*
X116570095Y-79751819D02*
X116808190Y-79751819D01*
X116808190Y-79751819D02*
X116903428Y-79799438D01*
X116903428Y-79799438D02*
X116951047Y-79847057D01*
X116951047Y-79847057D02*
X116998666Y-79942295D01*
X116998666Y-79942295D02*
X116998666Y-80037533D01*
X116998666Y-80037533D02*
X116951047Y-80180390D01*
X116951047Y-80180390D02*
X116379619Y-80751819D01*
X116379619Y-80751819D02*
X116998666Y-80751819D01*
X69744333Y-43383580D02*
X69696714Y-43431200D01*
X69696714Y-43431200D02*
X69553857Y-43478819D01*
X69553857Y-43478819D02*
X69458619Y-43478819D01*
X69458619Y-43478819D02*
X69315762Y-43431200D01*
X69315762Y-43431200D02*
X69220524Y-43335961D01*
X69220524Y-43335961D02*
X69172905Y-43240723D01*
X69172905Y-43240723D02*
X69125286Y-43050247D01*
X69125286Y-43050247D02*
X69125286Y-42907390D01*
X69125286Y-42907390D02*
X69172905Y-42716914D01*
X69172905Y-42716914D02*
X69220524Y-42621676D01*
X69220524Y-42621676D02*
X69315762Y-42526438D01*
X69315762Y-42526438D02*
X69458619Y-42478819D01*
X69458619Y-42478819D02*
X69553857Y-42478819D01*
X69553857Y-42478819D02*
X69696714Y-42526438D01*
X69696714Y-42526438D02*
X69744333Y-42574057D01*
X70077667Y-42478819D02*
X70696714Y-42478819D01*
X70696714Y-42478819D02*
X70363381Y-42859771D01*
X70363381Y-42859771D02*
X70506238Y-42859771D01*
X70506238Y-42859771D02*
X70601476Y-42907390D01*
X70601476Y-42907390D02*
X70649095Y-42955009D01*
X70649095Y-42955009D02*
X70696714Y-43050247D01*
X70696714Y-43050247D02*
X70696714Y-43288342D01*
X70696714Y-43288342D02*
X70649095Y-43383580D01*
X70649095Y-43383580D02*
X70601476Y-43431200D01*
X70601476Y-43431200D02*
X70506238Y-43478819D01*
X70506238Y-43478819D02*
X70220524Y-43478819D01*
X70220524Y-43478819D02*
X70125286Y-43431200D01*
X70125286Y-43431200D02*
X70077667Y-43383580D01*
X94010095Y-40009200D02*
X94152952Y-40056819D01*
X94152952Y-40056819D02*
X94391047Y-40056819D01*
X94391047Y-40056819D02*
X94486285Y-40009200D01*
X94486285Y-40009200D02*
X94533904Y-39961580D01*
X94533904Y-39961580D02*
X94581523Y-39866342D01*
X94581523Y-39866342D02*
X94581523Y-39771104D01*
X94581523Y-39771104D02*
X94533904Y-39675866D01*
X94533904Y-39675866D02*
X94486285Y-39628247D01*
X94486285Y-39628247D02*
X94391047Y-39580628D01*
X94391047Y-39580628D02*
X94200571Y-39533009D01*
X94200571Y-39533009D02*
X94105333Y-39485390D01*
X94105333Y-39485390D02*
X94057714Y-39437771D01*
X94057714Y-39437771D02*
X94010095Y-39342533D01*
X94010095Y-39342533D02*
X94010095Y-39247295D01*
X94010095Y-39247295D02*
X94057714Y-39152057D01*
X94057714Y-39152057D02*
X94105333Y-39104438D01*
X94105333Y-39104438D02*
X94200571Y-39056819D01*
X94200571Y-39056819D02*
X94438666Y-39056819D01*
X94438666Y-39056819D02*
X94581523Y-39104438D01*
X95343428Y-39533009D02*
X95486285Y-39580628D01*
X95486285Y-39580628D02*
X95533904Y-39628247D01*
X95533904Y-39628247D02*
X95581523Y-39723485D01*
X95581523Y-39723485D02*
X95581523Y-39866342D01*
X95581523Y-39866342D02*
X95533904Y-39961580D01*
X95533904Y-39961580D02*
X95486285Y-40009200D01*
X95486285Y-40009200D02*
X95391047Y-40056819D01*
X95391047Y-40056819D02*
X95010095Y-40056819D01*
X95010095Y-40056819D02*
X95010095Y-39056819D01*
X95010095Y-39056819D02*
X95343428Y-39056819D01*
X95343428Y-39056819D02*
X95438666Y-39104438D01*
X95438666Y-39104438D02*
X95486285Y-39152057D01*
X95486285Y-39152057D02*
X95533904Y-39247295D01*
X95533904Y-39247295D02*
X95533904Y-39342533D01*
X95533904Y-39342533D02*
X95486285Y-39437771D01*
X95486285Y-39437771D02*
X95438666Y-39485390D01*
X95438666Y-39485390D02*
X95343428Y-39533009D01*
X95343428Y-39533009D02*
X95010095Y-39533009D01*
X96533904Y-40056819D02*
X95962476Y-40056819D01*
X96248190Y-40056819D02*
X96248190Y-39056819D01*
X96248190Y-39056819D02*
X96152952Y-39199676D01*
X96152952Y-39199676D02*
X96057714Y-39294914D01*
X96057714Y-39294914D02*
X95962476Y-39342533D01*
X84772833Y-41476819D02*
X84439500Y-41000628D01*
X84201405Y-41476819D02*
X84201405Y-40476819D01*
X84201405Y-40476819D02*
X84582357Y-40476819D01*
X84582357Y-40476819D02*
X84677595Y-40524438D01*
X84677595Y-40524438D02*
X84725214Y-40572057D01*
X84725214Y-40572057D02*
X84772833Y-40667295D01*
X84772833Y-40667295D02*
X84772833Y-40810152D01*
X84772833Y-40810152D02*
X84725214Y-40905390D01*
X84725214Y-40905390D02*
X84677595Y-40953009D01*
X84677595Y-40953009D02*
X84582357Y-41000628D01*
X84582357Y-41000628D02*
X84201405Y-41000628D01*
X85725214Y-41476819D02*
X85153786Y-41476819D01*
X85439500Y-41476819D02*
X85439500Y-40476819D01*
X85439500Y-40476819D02*
X85344262Y-40619676D01*
X85344262Y-40619676D02*
X85249024Y-40714914D01*
X85249024Y-40714914D02*
X85153786Y-40762533D01*
X68643833Y-62431819D02*
X68310500Y-61955628D01*
X68072405Y-62431819D02*
X68072405Y-61431819D01*
X68072405Y-61431819D02*
X68453357Y-61431819D01*
X68453357Y-61431819D02*
X68548595Y-61479438D01*
X68548595Y-61479438D02*
X68596214Y-61527057D01*
X68596214Y-61527057D02*
X68643833Y-61622295D01*
X68643833Y-61622295D02*
X68643833Y-61765152D01*
X68643833Y-61765152D02*
X68596214Y-61860390D01*
X68596214Y-61860390D02*
X68548595Y-61908009D01*
X68548595Y-61908009D02*
X68453357Y-61955628D01*
X68453357Y-61955628D02*
X68072405Y-61955628D01*
X68977167Y-61431819D02*
X69596214Y-61431819D01*
X69596214Y-61431819D02*
X69262881Y-61812771D01*
X69262881Y-61812771D02*
X69405738Y-61812771D01*
X69405738Y-61812771D02*
X69500976Y-61860390D01*
X69500976Y-61860390D02*
X69548595Y-61908009D01*
X69548595Y-61908009D02*
X69596214Y-62003247D01*
X69596214Y-62003247D02*
X69596214Y-62241342D01*
X69596214Y-62241342D02*
X69548595Y-62336580D01*
X69548595Y-62336580D02*
X69500976Y-62384200D01*
X69500976Y-62384200D02*
X69405738Y-62431819D01*
X69405738Y-62431819D02*
X69120024Y-62431819D01*
X69120024Y-62431819D02*
X69024786Y-62384200D01*
X69024786Y-62384200D02*
X68977167Y-62336580D01*
X70712405Y-46796819D02*
X70712405Y-45796819D01*
X70712405Y-45796819D02*
X70950500Y-45796819D01*
X70950500Y-45796819D02*
X71093357Y-45844438D01*
X71093357Y-45844438D02*
X71188595Y-45939676D01*
X71188595Y-45939676D02*
X71236214Y-46034914D01*
X71236214Y-46034914D02*
X71283833Y-46225390D01*
X71283833Y-46225390D02*
X71283833Y-46368247D01*
X71283833Y-46368247D02*
X71236214Y-46558723D01*
X71236214Y-46558723D02*
X71188595Y-46653961D01*
X71188595Y-46653961D02*
X71093357Y-46749200D01*
X71093357Y-46749200D02*
X70950500Y-46796819D01*
X70950500Y-46796819D02*
X70712405Y-46796819D01*
X71712405Y-46796819D02*
X71712405Y-45796819D01*
X71712405Y-45796819D02*
X71950500Y-45796819D01*
X71950500Y-45796819D02*
X72093357Y-45844438D01*
X72093357Y-45844438D02*
X72188595Y-45939676D01*
X72188595Y-45939676D02*
X72236214Y-46034914D01*
X72236214Y-46034914D02*
X72283833Y-46225390D01*
X72283833Y-46225390D02*
X72283833Y-46368247D01*
X72283833Y-46368247D02*
X72236214Y-46558723D01*
X72236214Y-46558723D02*
X72188595Y-46653961D01*
X72188595Y-46653961D02*
X72093357Y-46749200D01*
X72093357Y-46749200D02*
X71950500Y-46796819D01*
X71950500Y-46796819D02*
X71712405Y-46796819D01*
X73188595Y-45796819D02*
X72712405Y-45796819D01*
X72712405Y-45796819D02*
X72664786Y-46273009D01*
X72664786Y-46273009D02*
X72712405Y-46225390D01*
X72712405Y-46225390D02*
X72807643Y-46177771D01*
X72807643Y-46177771D02*
X73045738Y-46177771D01*
X73045738Y-46177771D02*
X73140976Y-46225390D01*
X73140976Y-46225390D02*
X73188595Y-46273009D01*
X73188595Y-46273009D02*
X73236214Y-46368247D01*
X73236214Y-46368247D02*
X73236214Y-46606342D01*
X73236214Y-46606342D02*
X73188595Y-46701580D01*
X73188595Y-46701580D02*
X73140976Y-46749200D01*
X73140976Y-46749200D02*
X73045738Y-46796819D01*
X73045738Y-46796819D02*
X72807643Y-46796819D01*
X72807643Y-46796819D02*
X72712405Y-46749200D01*
X72712405Y-46749200D02*
X72664786Y-46701580D01*
X109942476Y-39873819D02*
X110609142Y-40873819D01*
X110609142Y-39873819D02*
X109942476Y-40873819D01*
X110990095Y-40873819D02*
X110990095Y-39873819D01*
X110990095Y-39873819D02*
X111371047Y-39873819D01*
X111371047Y-39873819D02*
X111466285Y-39921438D01*
X111466285Y-39921438D02*
X111513904Y-39969057D01*
X111513904Y-39969057D02*
X111561523Y-40064295D01*
X111561523Y-40064295D02*
X111561523Y-40207152D01*
X111561523Y-40207152D02*
X111513904Y-40302390D01*
X111513904Y-40302390D02*
X111466285Y-40350009D01*
X111466285Y-40350009D02*
X111371047Y-40397628D01*
X111371047Y-40397628D02*
X110990095Y-40397628D01*
X112513904Y-40873819D02*
X111942476Y-40873819D01*
X112228190Y-40873819D02*
X112228190Y-39873819D01*
X112228190Y-39873819D02*
X112132952Y-40016676D01*
X112132952Y-40016676D02*
X112037714Y-40111914D01*
X112037714Y-40111914D02*
X111942476Y-40159533D01*
X83543333Y-48111819D02*
X83543333Y-47111819D01*
X83543333Y-47588009D02*
X84114761Y-47588009D01*
X84114761Y-48111819D02*
X84114761Y-47111819D01*
X85067142Y-48111819D02*
X84590952Y-48111819D01*
X84590952Y-48111819D02*
X84590952Y-47111819D01*
X85924285Y-48111819D02*
X85352857Y-48111819D01*
X85638571Y-48111819D02*
X85638571Y-47111819D01*
X85638571Y-47111819D02*
X85543333Y-47254676D01*
X85543333Y-47254676D02*
X85448095Y-47349914D01*
X85448095Y-47349914D02*
X85352857Y-47397533D01*
X115291333Y-59096819D02*
X115291333Y-58096819D01*
X115291333Y-58573009D02*
X115862761Y-58573009D01*
X115862761Y-59096819D02*
X115862761Y-58096819D01*
X116815142Y-59096819D02*
X116338952Y-59096819D01*
X116338952Y-59096819D02*
X116338952Y-58096819D01*
X117100857Y-58192057D02*
X117148476Y-58144438D01*
X117148476Y-58144438D02*
X117243714Y-58096819D01*
X117243714Y-58096819D02*
X117481809Y-58096819D01*
X117481809Y-58096819D02*
X117577047Y-58144438D01*
X117577047Y-58144438D02*
X117624666Y-58192057D01*
X117624666Y-58192057D02*
X117672285Y-58287295D01*
X117672285Y-58287295D02*
X117672285Y-58382533D01*
X117672285Y-58382533D02*
X117624666Y-58525390D01*
X117624666Y-58525390D02*
X117053238Y-59096819D01*
X117053238Y-59096819D02*
X117672285Y-59096819D01*
X99615666Y-80005819D02*
X99615666Y-80720104D01*
X99615666Y-80720104D02*
X99568047Y-80862961D01*
X99568047Y-80862961D02*
X99472809Y-80958200D01*
X99472809Y-80958200D02*
X99329952Y-81005819D01*
X99329952Y-81005819D02*
X99234714Y-81005819D01*
X100615666Y-81005819D02*
X100044238Y-81005819D01*
X100329952Y-81005819D02*
X100329952Y-80005819D01*
X100329952Y-80005819D02*
X100234714Y-80148676D01*
X100234714Y-80148676D02*
X100139476Y-80243914D01*
X100139476Y-80243914D02*
X100044238Y-80291533D01*
X92543428Y-59530009D02*
X92686285Y-59577628D01*
X92686285Y-59577628D02*
X92733904Y-59625247D01*
X92733904Y-59625247D02*
X92781523Y-59720485D01*
X92781523Y-59720485D02*
X92781523Y-59863342D01*
X92781523Y-59863342D02*
X92733904Y-59958580D01*
X92733904Y-59958580D02*
X92686285Y-60006200D01*
X92686285Y-60006200D02*
X92591047Y-60053819D01*
X92591047Y-60053819D02*
X92210095Y-60053819D01*
X92210095Y-60053819D02*
X92210095Y-59053819D01*
X92210095Y-59053819D02*
X92543428Y-59053819D01*
X92543428Y-59053819D02*
X92638666Y-59101438D01*
X92638666Y-59101438D02*
X92686285Y-59149057D01*
X92686285Y-59149057D02*
X92733904Y-59244295D01*
X92733904Y-59244295D02*
X92733904Y-59339533D01*
X92733904Y-59339533D02*
X92686285Y-59434771D01*
X92686285Y-59434771D02*
X92638666Y-59482390D01*
X92638666Y-59482390D02*
X92543428Y-59530009D01*
X92543428Y-59530009D02*
X92210095Y-59530009D01*
X93876761Y-60149057D02*
X93781523Y-60101438D01*
X93781523Y-60101438D02*
X93686285Y-60006200D01*
X93686285Y-60006200D02*
X93543428Y-59863342D01*
X93543428Y-59863342D02*
X93448190Y-59815723D01*
X93448190Y-59815723D02*
X93352952Y-59815723D01*
X93400571Y-60053819D02*
X93305333Y-60006200D01*
X93305333Y-60006200D02*
X93210095Y-59910961D01*
X93210095Y-59910961D02*
X93162476Y-59720485D01*
X93162476Y-59720485D02*
X93162476Y-59387152D01*
X93162476Y-59387152D02*
X93210095Y-59196676D01*
X93210095Y-59196676D02*
X93305333Y-59101438D01*
X93305333Y-59101438D02*
X93400571Y-59053819D01*
X93400571Y-59053819D02*
X93591047Y-59053819D01*
X93591047Y-59053819D02*
X93686285Y-59101438D01*
X93686285Y-59101438D02*
X93781523Y-59196676D01*
X93781523Y-59196676D02*
X93829142Y-59387152D01*
X93829142Y-59387152D02*
X93829142Y-59720485D01*
X93829142Y-59720485D02*
X93781523Y-59910961D01*
X93781523Y-59910961D02*
X93686285Y-60006200D01*
X93686285Y-60006200D02*
X93591047Y-60053819D01*
X93591047Y-60053819D02*
X93400571Y-60053819D01*
X94781523Y-60053819D02*
X94210095Y-60053819D01*
X94495809Y-60053819D02*
X94495809Y-59053819D01*
X94495809Y-59053819D02*
X94400571Y-59196676D01*
X94400571Y-59196676D02*
X94305333Y-59291914D01*
X94305333Y-59291914D02*
X94210095Y-59339533D01*
X105965666Y-80005819D02*
X105965666Y-80720104D01*
X105965666Y-80720104D02*
X105918047Y-80862961D01*
X105918047Y-80862961D02*
X105822809Y-80958200D01*
X105822809Y-80958200D02*
X105679952Y-81005819D01*
X105679952Y-81005819D02*
X105584714Y-81005819D01*
X106346619Y-80005819D02*
X106965666Y-80005819D01*
X106965666Y-80005819D02*
X106632333Y-80386771D01*
X106632333Y-80386771D02*
X106775190Y-80386771D01*
X106775190Y-80386771D02*
X106870428Y-80434390D01*
X106870428Y-80434390D02*
X106918047Y-80482009D01*
X106918047Y-80482009D02*
X106965666Y-80577247D01*
X106965666Y-80577247D02*
X106965666Y-80815342D01*
X106965666Y-80815342D02*
X106918047Y-80910580D01*
X106918047Y-80910580D02*
X106870428Y-80958200D01*
X106870428Y-80958200D02*
X106775190Y-81005819D01*
X106775190Y-81005819D02*
X106489476Y-81005819D01*
X106489476Y-81005819D02*
X106394238Y-80958200D01*
X106394238Y-80958200D02*
X106346619Y-80910580D01*
X75840333Y-43002580D02*
X75792714Y-43050200D01*
X75792714Y-43050200D02*
X75649857Y-43097819D01*
X75649857Y-43097819D02*
X75554619Y-43097819D01*
X75554619Y-43097819D02*
X75411762Y-43050200D01*
X75411762Y-43050200D02*
X75316524Y-42954961D01*
X75316524Y-42954961D02*
X75268905Y-42859723D01*
X75268905Y-42859723D02*
X75221286Y-42669247D01*
X75221286Y-42669247D02*
X75221286Y-42526390D01*
X75221286Y-42526390D02*
X75268905Y-42335914D01*
X75268905Y-42335914D02*
X75316524Y-42240676D01*
X75316524Y-42240676D02*
X75411762Y-42145438D01*
X75411762Y-42145438D02*
X75554619Y-42097819D01*
X75554619Y-42097819D02*
X75649857Y-42097819D01*
X75649857Y-42097819D02*
X75792714Y-42145438D01*
X75792714Y-42145438D02*
X75840333Y-42193057D01*
X76697476Y-42431152D02*
X76697476Y-43097819D01*
X76459381Y-42050200D02*
X76221286Y-42764485D01*
X76221286Y-42764485D02*
X76840333Y-42764485D01*
X109029833Y-53541819D02*
X108696500Y-53065628D01*
X108458405Y-53541819D02*
X108458405Y-52541819D01*
X108458405Y-52541819D02*
X108839357Y-52541819D01*
X108839357Y-52541819D02*
X108934595Y-52589438D01*
X108934595Y-52589438D02*
X108982214Y-52637057D01*
X108982214Y-52637057D02*
X109029833Y-52732295D01*
X109029833Y-52732295D02*
X109029833Y-52875152D01*
X109029833Y-52875152D02*
X108982214Y-52970390D01*
X108982214Y-52970390D02*
X108934595Y-53018009D01*
X108934595Y-53018009D02*
X108839357Y-53065628D01*
X108839357Y-53065628D02*
X108458405Y-53065628D01*
X109410786Y-52637057D02*
X109458405Y-52589438D01*
X109458405Y-52589438D02*
X109553643Y-52541819D01*
X109553643Y-52541819D02*
X109791738Y-52541819D01*
X109791738Y-52541819D02*
X109886976Y-52589438D01*
X109886976Y-52589438D02*
X109934595Y-52637057D01*
X109934595Y-52637057D02*
X109982214Y-52732295D01*
X109982214Y-52732295D02*
X109982214Y-52827533D01*
X109982214Y-52827533D02*
X109934595Y-52970390D01*
X109934595Y-52970390D02*
X109363167Y-53541819D01*
X109363167Y-53541819D02*
X109982214Y-53541819D01*
X101494333Y-62687580D02*
X101446714Y-62735200D01*
X101446714Y-62735200D02*
X101303857Y-62782819D01*
X101303857Y-62782819D02*
X101208619Y-62782819D01*
X101208619Y-62782819D02*
X101065762Y-62735200D01*
X101065762Y-62735200D02*
X100970524Y-62639961D01*
X100970524Y-62639961D02*
X100922905Y-62544723D01*
X100922905Y-62544723D02*
X100875286Y-62354247D01*
X100875286Y-62354247D02*
X100875286Y-62211390D01*
X100875286Y-62211390D02*
X100922905Y-62020914D01*
X100922905Y-62020914D02*
X100970524Y-61925676D01*
X100970524Y-61925676D02*
X101065762Y-61830438D01*
X101065762Y-61830438D02*
X101208619Y-61782819D01*
X101208619Y-61782819D02*
X101303857Y-61782819D01*
X101303857Y-61782819D02*
X101446714Y-61830438D01*
X101446714Y-61830438D02*
X101494333Y-61878057D01*
X101875286Y-61878057D02*
X101922905Y-61830438D01*
X101922905Y-61830438D02*
X102018143Y-61782819D01*
X102018143Y-61782819D02*
X102256238Y-61782819D01*
X102256238Y-61782819D02*
X102351476Y-61830438D01*
X102351476Y-61830438D02*
X102399095Y-61878057D01*
X102399095Y-61878057D02*
X102446714Y-61973295D01*
X102446714Y-61973295D02*
X102446714Y-62068533D01*
X102446714Y-62068533D02*
X102399095Y-62211390D01*
X102399095Y-62211390D02*
X101827667Y-62782819D01*
X101827667Y-62782819D02*
X102446714Y-62782819D01*
X117181819Y-107410094D02*
X116181819Y-107410094D01*
X116181819Y-107410094D02*
X116181819Y-107171999D01*
X116181819Y-107171999D02*
X116229438Y-107029142D01*
X116229438Y-107029142D02*
X116324676Y-106933904D01*
X116324676Y-106933904D02*
X116419914Y-106886285D01*
X116419914Y-106886285D02*
X116610390Y-106838666D01*
X116610390Y-106838666D02*
X116753247Y-106838666D01*
X116753247Y-106838666D02*
X116943723Y-106886285D01*
X116943723Y-106886285D02*
X117038961Y-106933904D01*
X117038961Y-106933904D02*
X117134200Y-107029142D01*
X117134200Y-107029142D02*
X117181819Y-107171999D01*
X117181819Y-107171999D02*
X117181819Y-107410094D01*
X117181819Y-106410094D02*
X116181819Y-106410094D01*
X116181819Y-106410094D02*
X116181819Y-106171999D01*
X116181819Y-106171999D02*
X116229438Y-106029142D01*
X116229438Y-106029142D02*
X116324676Y-105933904D01*
X116324676Y-105933904D02*
X116419914Y-105886285D01*
X116419914Y-105886285D02*
X116610390Y-105838666D01*
X116610390Y-105838666D02*
X116753247Y-105838666D01*
X116753247Y-105838666D02*
X116943723Y-105886285D01*
X116943723Y-105886285D02*
X117038961Y-105933904D01*
X117038961Y-105933904D02*
X117134200Y-106029142D01*
X117134200Y-106029142D02*
X117181819Y-106171999D01*
X117181819Y-106171999D02*
X117181819Y-106410094D01*
X116181819Y-105505332D02*
X116181819Y-104886285D01*
X116181819Y-104886285D02*
X116562771Y-105219618D01*
X116562771Y-105219618D02*
X116562771Y-105076761D01*
X116562771Y-105076761D02*
X116610390Y-104981523D01*
X116610390Y-104981523D02*
X116658009Y-104933904D01*
X116658009Y-104933904D02*
X116753247Y-104886285D01*
X116753247Y-104886285D02*
X116991342Y-104886285D01*
X116991342Y-104886285D02*
X117086580Y-104933904D01*
X117086580Y-104933904D02*
X117134200Y-104981523D01*
X117134200Y-104981523D02*
X117181819Y-105076761D01*
X117181819Y-105076761D02*
X117181819Y-105362475D01*
X117181819Y-105362475D02*
X117134200Y-105457713D01*
X117134200Y-105457713D02*
X117086580Y-105505332D01*
X76313819Y-118633713D02*
X77313819Y-117967047D01*
X76313819Y-117967047D02*
X77313819Y-118633713D01*
X77266200Y-117633713D02*
X77313819Y-117490856D01*
X77313819Y-117490856D02*
X77313819Y-117252761D01*
X77313819Y-117252761D02*
X77266200Y-117157523D01*
X77266200Y-117157523D02*
X77218580Y-117109904D01*
X77218580Y-117109904D02*
X77123342Y-117062285D01*
X77123342Y-117062285D02*
X77028104Y-117062285D01*
X77028104Y-117062285D02*
X76932866Y-117109904D01*
X76932866Y-117109904D02*
X76885247Y-117157523D01*
X76885247Y-117157523D02*
X76837628Y-117252761D01*
X76837628Y-117252761D02*
X76790009Y-117443237D01*
X76790009Y-117443237D02*
X76742390Y-117538475D01*
X76742390Y-117538475D02*
X76694771Y-117586094D01*
X76694771Y-117586094D02*
X76599533Y-117633713D01*
X76599533Y-117633713D02*
X76504295Y-117633713D01*
X76504295Y-117633713D02*
X76409057Y-117586094D01*
X76409057Y-117586094D02*
X76361438Y-117538475D01*
X76361438Y-117538475D02*
X76313819Y-117443237D01*
X76313819Y-117443237D02*
X76313819Y-117205142D01*
X76313819Y-117205142D02*
X76361438Y-117062285D01*
X76409057Y-116681332D02*
X76361438Y-116633713D01*
X76361438Y-116633713D02*
X76313819Y-116538475D01*
X76313819Y-116538475D02*
X76313819Y-116300380D01*
X76313819Y-116300380D02*
X76361438Y-116205142D01*
X76361438Y-116205142D02*
X76409057Y-116157523D01*
X76409057Y-116157523D02*
X76504295Y-116109904D01*
X76504295Y-116109904D02*
X76599533Y-116109904D01*
X76599533Y-116109904D02*
X76742390Y-116157523D01*
X76742390Y-116157523D02*
X77313819Y-116728951D01*
X77313819Y-116728951D02*
X77313819Y-116109904D01*
D11*
%TO.C,DD1*%
X116011000Y-73771000D02*
G75*
G02*
X116011000Y-71771000I0J1000000D01*
G01*
X116071000Y-67631000D02*
X80271000Y-67631000D01*
X80271000Y-77911000D01*
X116071000Y-77911000D01*
X116071000Y-67631000D01*
X116011000Y-75421000D02*
X116011000Y-73771000D01*
X116011000Y-71771000D02*
X116011000Y-70121000D01*
X116011000Y-70121000D02*
X80331000Y-70121000D01*
X80331000Y-75421000D02*
X116011000Y-75421000D01*
X80331000Y-70121000D02*
X80331000Y-75421000D01*
%TO.C,C1*%
X84762748Y-63146000D02*
X85285252Y-63146000D01*
X84762748Y-64616000D02*
X85285252Y-64616000D01*
%TO.C,DD4*%
X74743000Y-89806000D02*
X74743000Y-91456000D01*
X74743000Y-93456000D02*
X74743000Y-95106000D01*
X74743000Y-95106000D02*
X100263000Y-95106000D01*
X100263000Y-89806000D02*
X74743000Y-89806000D01*
X100263000Y-95106000D02*
X100263000Y-89806000D01*
X74743000Y-91456000D02*
G75*
G02*
X74743000Y-93456000I0J-1000000D01*
G01*
%TO.C,J2*%
X114952000Y-81297000D02*
X116332000Y-81297000D01*
X114952000Y-82677000D02*
X114952000Y-81297000D01*
X114952000Y-83947000D02*
X114952000Y-84057000D01*
X114952000Y-83947000D02*
X117712000Y-83947000D01*
X114952000Y-84057000D02*
X117712000Y-84057000D01*
X117712000Y-83947000D02*
X117712000Y-84057000D01*
%TO.C,C3*%
X69649748Y-43969000D02*
X70172252Y-43969000D01*
X69649748Y-45439000D02*
X70172252Y-45439000D01*
%TO.C,SB1*%
X92172000Y-40552000D02*
X92172000Y-40652000D01*
X92172000Y-40552000D02*
X98372000Y-40552000D01*
X92172000Y-42152000D02*
X92172000Y-45152000D01*
X92172000Y-46752000D02*
X92172000Y-46652000D01*
X92172000Y-46752000D02*
X98372000Y-46752000D01*
X98372000Y-40652000D02*
X98372000Y-40552000D01*
X98372000Y-42152000D02*
X98372000Y-45152000D01*
X98372000Y-46752000D02*
X98372000Y-46652000D01*
%TO.C,R1*%
X84712436Y-41937000D02*
X85166564Y-41937000D01*
X84712436Y-43407000D02*
X85166564Y-43407000D01*
%TO.C,R3*%
X68583436Y-62892000D02*
X69037564Y-62892000D01*
X68583436Y-64362000D02*
X69037564Y-64362000D01*
%TO.C,DD5*%
X69640500Y-47157000D02*
X74260500Y-47157000D01*
X74260500Y-53927000D02*
X69640500Y-53927000D01*
X68090500Y-47612000D02*
X67760500Y-47852000D01*
X67760500Y-47372000D01*
X68090500Y-47612000D01*
G36*
X68090500Y-47612000D02*
G01*
X67760500Y-47852000D01*
X67760500Y-47372000D01*
X68090500Y-47612000D01*
G37*
%TO.C,XP1*%
X108602000Y-41419000D02*
X109982000Y-41419000D01*
X108602000Y-42799000D02*
X108602000Y-41419000D01*
X108602000Y-44069000D02*
X108602000Y-49259000D01*
X108602000Y-44069000D02*
X111252000Y-44069000D01*
X108602000Y-49259000D02*
X113902000Y-49259000D01*
X111252000Y-41419000D02*
X113902000Y-41419000D01*
X111252000Y-44069000D02*
X111252000Y-41419000D01*
X113902000Y-41419000D02*
X113902000Y-49259000D01*
%TO.C,HL1*%
X82350000Y-48657000D02*
X82350000Y-50657000D01*
X82350000Y-48657000D02*
X86360000Y-48657000D01*
X82350000Y-50657000D02*
X86360000Y-50657000D01*
%TO.C,HL2*%
X118818000Y-55642000D02*
X114808000Y-55642000D01*
X118818000Y-57642000D02*
X114808000Y-57642000D01*
X118818000Y-57642000D02*
X118818000Y-55642000D01*
%TO.C,J1*%
X98569000Y-81551000D02*
X99949000Y-81551000D01*
X98569000Y-82931000D02*
X98569000Y-81551000D01*
X98569000Y-84201000D02*
X98569000Y-84311000D01*
X98569000Y-84201000D02*
X101329000Y-84201000D01*
X98569000Y-84311000D02*
X101329000Y-84311000D01*
X101329000Y-84201000D02*
X101329000Y-84311000D01*
%TO.C,BQ1*%
X90347000Y-60684000D02*
X96597000Y-60684000D01*
X96597000Y-65554000D02*
X90347000Y-65554000D01*
X90347000Y-65554000D02*
G75*
G02*
X90347000Y-60684000I0J2435000D01*
G01*
X96597000Y-60684000D02*
G75*
G02*
X96597000Y-65554000I0J-2435000D01*
G01*
%TO.C,J3*%
X104919000Y-81551000D02*
X106299000Y-81551000D01*
X104919000Y-82931000D02*
X104919000Y-81551000D01*
X104919000Y-84201000D02*
X104919000Y-84311000D01*
X104919000Y-84201000D02*
X107679000Y-84201000D01*
X104919000Y-84311000D02*
X107679000Y-84311000D01*
X107679000Y-84201000D02*
X107679000Y-84311000D01*
%TO.C,C4*%
X75745748Y-43588000D02*
X76268252Y-43588000D01*
X75745748Y-45058000D02*
X76268252Y-45058000D01*
%TO.C,R2*%
X108969436Y-54002000D02*
X109423564Y-54002000D01*
X108969436Y-55472000D02*
X109423564Y-55472000D01*
%TO.C,C2*%
X101399748Y-63273000D02*
X101922252Y-63273000D01*
X101399748Y-64743000D02*
X101922252Y-64743000D01*
%TO.C,DD3*%
X100267000Y-102312000D02*
X100532000Y-102312000D01*
X100267000Y-110032000D02*
X100267000Y-102312000D01*
X100532000Y-110032000D02*
X100267000Y-110032000D01*
X115622000Y-102312000D02*
X115887000Y-102312000D01*
X115887000Y-102312000D02*
X115887000Y-110032000D01*
X115887000Y-110032000D02*
X115622000Y-110032000D01*
X116097000Y-101862000D02*
X115627000Y-101522000D01*
X116097000Y-101182000D01*
X116097000Y-101862000D01*
G36*
X116097000Y-101862000D02*
G01*
X115627000Y-101522000D01*
X116097000Y-101182000D01*
X116097000Y-101862000D01*
G37*
%TO.C,XS2*%
X78299000Y-114748000D02*
X79629000Y-114748000D01*
X78299000Y-116078000D02*
X78299000Y-114748000D01*
X78299000Y-117348000D02*
X80899000Y-117348000D01*
X78299000Y-119948000D02*
X78299000Y-117348000D01*
X78299000Y-119948000D02*
X108899000Y-119948000D01*
X80899000Y-114748000D02*
X108899000Y-114748000D01*
X80899000Y-117348000D02*
X80899000Y-114748000D01*
X108899000Y-119948000D02*
X108899000Y-114748000D01*
%TD*%
M02*
