%TF.GenerationSoftware,KiCad,Pcbnew,9.0.8*%
%TF.CreationDate,2026-04-24T00:15:39+07:00*%
%TF.ProjectId,______,14181f1b-1e1c-42e6-9b69-6361645f7063,rev?*%
%TF.SameCoordinates,Original*%
%TF.FileFunction,Copper,L2,Bot*%
%TF.FilePolarity,Positive*%
%FSLAX46Y46*%
G04 Gerber Fmt 4.6, Leading zero omitted, Abs format (unit mm)*
G04 Created by KiCad (PCBNEW 9.0.8) date 2026-04-24 00:15:39*
%MOMM*%
%LPD*%
G01*
G04 APERTURE LIST*
G04 Aperture macros list*
%AMRoundRect*
0 Rectangle with rounded corners*
0 $1 Rounding radius*
0 $2 $3 $4 $5 $6 $7 $8 $9 X,Y pos of 4 corners*
0 Add a 4 corners polygon primitive as box body*
4,1,4,$2,$3,$4,$5,$6,$7,$8,$9,$2,$3,0*
0 Add four circle primitives for the rounded corners*
1,1,$1+$1,$2,$3*
1,1,$1+$1,$4,$5*
1,1,$1+$1,$6,$7*
1,1,$1+$1,$8,$9*
0 Add four rect primitives between the rounded corners*
20,1,$1+$1,$2,$3,$4,$5,0*
20,1,$1+$1,$4,$5,$6,$7,0*
20,1,$1+$1,$6,$7,$8,$9,0*
20,1,$1+$1,$8,$9,$2,$3,0*%
G04 Aperture macros list end*
%TA.AperFunction,ComponentPad*%
%ADD10RoundRect,0.250000X0.550000X-0.550000X0.550000X0.550000X-0.550000X0.550000X-0.550000X-0.550000X0*%
%TD*%
%TA.AperFunction,ComponentPad*%
%ADD11C,1.600000*%
%TD*%
%TA.AperFunction,ComponentPad*%
%ADD12R,1.700000X1.700000*%
%TD*%
%TA.AperFunction,ComponentPad*%
%ADD13C,1.700000*%
%TD*%
%TA.AperFunction,ComponentPad*%
%ADD14C,1.500000*%
%TD*%
%TA.AperFunction,ViaPad*%
%ADD15C,0.600000*%
%TD*%
%TA.AperFunction,Conductor*%
%ADD16C,0.200000*%
%TD*%
G04 APERTURE END LIST*
D10*
%TO.P,DD4,1,DIR*%
%TO.N,Net-(DD1-PD4)*%
X76073000Y-96266000D03*
D11*
%TO.P,DD4,2,A1*%
%TO.N,Net-(DD1-PB0)*%
X78613000Y-96266000D03*
%TO.P,DD4,3,A2*%
%TO.N,Net-(DD1-PB1)*%
X81153000Y-96266000D03*
%TO.P,DD4,4,A3*%
%TO.N,Net-(DD1-PB2)*%
X83693000Y-96266000D03*
%TO.P,DD4,5,A4*%
%TO.N,Net-(DD1-PB3)*%
X86233000Y-96266000D03*
%TO.P,DD4,6,A5*%
%TO.N,Net-(DD1-PB4)*%
X88773000Y-96266000D03*
%TO.P,DD4,7,A6*%
%TO.N,Net-(DD1-PB5)*%
X91313000Y-96266000D03*
%TO.P,DD4,8,A7*%
%TO.N,Net-(DD1-PC0)*%
X93853000Y-96266000D03*
%TO.P,DD4,9,A8*%
%TO.N,Net-(DD1-PC1)*%
X96393000Y-96266000D03*
%TO.P,DD4,10,GND*%
%TO.N,GND*%
X98933000Y-96266000D03*
%TO.P,DD4,11,B8*%
%TO.N,Net-(DD4-B8)*%
X98933000Y-88646000D03*
%TO.P,DD4,12,B7*%
%TO.N,Net-(DD4-B7)*%
X96393000Y-88646000D03*
%TO.P,DD4,13,B6*%
%TO.N,Net-(DD4-B6)*%
X93853000Y-88646000D03*
%TO.P,DD4,14,B5*%
%TO.N,Net-(DD4-B5)*%
X91313000Y-88646000D03*
%TO.P,DD4,15,B4*%
%TO.N,Net-(DD4-B4)*%
X88773000Y-88646000D03*
%TO.P,DD4,16,B3*%
%TO.N,Net-(DD4-B3)*%
X86233000Y-88646000D03*
%TO.P,DD4,17,B2*%
%TO.N,Net-(DD4-B2)*%
X83693000Y-88646000D03*
%TO.P,DD4,18,B1*%
%TO.N,Net-(DD4-B1)*%
X81153000Y-88646000D03*
%TO.P,DD4,19,\u002AOE*%
%TO.N,GND*%
X78613000Y-88646000D03*
%TO.P,DD4,20,VCC*%
%TO.N,+5V*%
X76073000Y-88646000D03*
%TD*%
D12*
%TO.P,J2,1,Pin_1*%
%TO.N,Net-(DD3-DC)*%
X116332000Y-82677000D03*
%TD*%
%TO.P,XP1,1,Pin_1*%
%TO.N,Net-(DD1-PB4)*%
X109982000Y-42799000D03*
D13*
%TO.P,XP1,2,Pin_2*%
%TO.N,+5V*%
X112522000Y-42799000D03*
%TO.P,XP1,3,Pin_3*%
%TO.N,Net-(DD1-PB5)*%
X109982000Y-45339000D03*
%TO.P,XP1,4,Pin_4*%
%TO.N,Net-(DD1-PB3)*%
X112522000Y-45339000D03*
%TO.P,XP1,5,Pin_5*%
%TO.N,Net-(DD1-PC6)*%
X109982000Y-47879000D03*
%TO.P,XP1,6,Pin_6*%
%TO.N,GND*%
X112522000Y-47879000D03*
%TD*%
D12*
%TO.P,J1,1,Pin_1*%
%TO.N,Net-(DD3-TE)*%
X99949000Y-82931000D03*
%TD*%
D14*
%TO.P,BQ1,1,1*%
%TO.N,Net-(DD1-PB7)*%
X91032000Y-63119000D03*
%TO.P,BQ1,2,2*%
%TO.N,Net-(DD1-PB6)*%
X95912000Y-63119000D03*
%TD*%
D12*
%TO.P,J3,1,Pin_1*%
%TO.N,Net-(DD3-SC)*%
X106299000Y-82931000D03*
%TD*%
%TO.P,XS2,1,Pin_1*%
%TO.N,Net-(DD4-B1)*%
X79629000Y-116078000D03*
D13*
%TO.P,XS2,2,Pin_2*%
%TO.N,Net-(DD4-B5)*%
X79629000Y-118618000D03*
%TO.P,XS2,3,Pin_3*%
%TO.N,Net-(DD4-B2)*%
X82169000Y-116078000D03*
%TO.P,XS2,4,Pin_4*%
%TO.N,Net-(DD4-B6)*%
X82169000Y-118618000D03*
%TO.P,XS2,5,Pin_5*%
%TO.N,Net-(DD4-B3)*%
X84709000Y-116078000D03*
%TO.P,XS2,6,Pin_6*%
%TO.N,Net-(DD4-B7)*%
X84709000Y-118618000D03*
%TO.P,XS2,7,Pin_7*%
%TO.N,Net-(DD4-B4)*%
X87249000Y-116078000D03*
%TO.P,XS2,8,Pin_8*%
%TO.N,Net-(DD4-B8)*%
X87249000Y-118618000D03*
%TO.P,XS2,9,Pin_9*%
%TO.N,Net-(XS2-Pin_9)*%
X89789000Y-116078000D03*
%TO.P,XS2,10,Pin_10*%
%TO.N,Net-(XS2-Pin_10)*%
X89789000Y-118618000D03*
%TO.P,XS2,11,Pin_11*%
%TO.N,Net-(XS2-Pin_11)*%
X92329000Y-116078000D03*
%TO.P,XS2,12,Pin_12*%
%TO.N,GND*%
X92329000Y-118618000D03*
%TO.P,XS2,13,Pin_13*%
%TO.N,Net-(XS2-Pin_13)*%
X94869000Y-116078000D03*
%TO.P,XS2,14,Pin_14*%
%TO.N,GND*%
X94869000Y-118618000D03*
%TO.P,XS2,15,Pin_15*%
%TO.N,Net-(XS2-Pin_15)*%
X97409000Y-116078000D03*
%TO.P,XS2,16,Pin_16*%
%TO.N,GND*%
X97409000Y-118618000D03*
%TO.P,XS2,17,Pin_17*%
%TO.N,Net-(XS2-Pin_17)*%
X99949000Y-116078000D03*
%TO.P,XS2,18,Pin_18*%
%TO.N,GND*%
X99949000Y-118618000D03*
%TO.P,XS2,19,Pin_19*%
%TO.N,Net-(XS2-Pin_19)*%
X102489000Y-116078000D03*
%TO.P,XS2,20,Pin_20*%
%TO.N,GND*%
X102489000Y-118618000D03*
%TO.P,XS2,21,Pin_21*%
%TO.N,Net-(XS2-Pin_21)*%
X105029000Y-116078000D03*
%TO.P,XS2,22,Pin_22*%
%TO.N,GND*%
X105029000Y-118618000D03*
%TO.P,XS2,23,Pin_23*%
X107569000Y-116078000D03*
%TO.P,XS2,24,Pin_24*%
X107569000Y-118618000D03*
%TD*%
D12*
%TO.P,XS1,1,Pin_1*%
%TO.N,Net-(XS1-Pin_1)*%
X70104000Y-118872000D03*
D13*
%TO.P,XS1,2,Pin_2*%
%TO.N,Net-(XS1-Pin_2)*%
X67564000Y-118872000D03*
%TO.P,XS1,3,Pin_3*%
%TO.N,unconnected-(XS1-Pin_3-Pad3)*%
X70104000Y-116332000D03*
%TO.P,XS1,4,Pin_4*%
%TO.N,unconnected-(XS1-Pin_4-Pad4)*%
X67564000Y-116332000D03*
%TO.P,XS1,5,Pin_5*%
%TO.N,unconnected-(XS1-Pin_5-Pad5)*%
X70104000Y-113792000D03*
%TO.P,XS1,6,Pin_6*%
%TO.N,Net-(DD5-GND)*%
X67564000Y-113792000D03*
%TO.P,XS1,7,Pin_7*%
%TO.N,unconnected-(XS1-Pin_7-Pad7)*%
X70104000Y-111252000D03*
%TO.P,XS1,8,Pin_8*%
%TO.N,unconnected-(XS1-Pin_8-Pad8)*%
X67564000Y-111252000D03*
%TO.P,XS1,9,Pin_9*%
%TO.N,unconnected-(XS1-Pin_9-Pad9)*%
X70104000Y-108712000D03*
%TO.P,XS1,10,Pin_10*%
%TO.N,unconnected-(XS1-Pin_10-Pad10)*%
X67564000Y-108712000D03*
%TO.P,XS1,11,Pin_11*%
%TO.N,unconnected-(XS1-Pin_11-Pad11)*%
X70104000Y-106172000D03*
%TO.P,XS1,12,Pin_12*%
%TO.N,unconnected-(XS1-Pin_12-Pad12)*%
X67564000Y-106172000D03*
%TO.P,XS1,13,Pin_13*%
%TO.N,unconnected-(XS1-Pin_13-Pad13)*%
X70104000Y-103632000D03*
%TO.P,XS1,14,Pin_14*%
%TO.N,unconnected-(XS1-Pin_14-Pad14)*%
X67564000Y-103632000D03*
%TO.P,XS1,15,Pin_15*%
%TO.N,unconnected-(XS1-Pin_15-Pad15)*%
X70104000Y-101092000D03*
%TO.P,XS1,16,Pin_16*%
%TO.N,unconnected-(XS1-Pin_16-Pad16)*%
X67564000Y-101092000D03*
%TO.P,XS1,17,Pin_17*%
%TO.N,unconnected-(XS1-Pin_17-Pad17)*%
X70104000Y-98552000D03*
%TO.P,XS1,18,Pin_18*%
%TO.N,unconnected-(XS1-Pin_18-Pad18)*%
X67564000Y-98552000D03*
%TO.P,XS1,19,Pin_19*%
%TO.N,unconnected-(XS1-Pin_19-Pad19)*%
X70104000Y-96012000D03*
%TO.P,XS1,20,Pin_20*%
%TO.N,unconnected-(XS1-Pin_20-Pad20)*%
X67564000Y-96012000D03*
%TO.P,XS1,21,Pin_21*%
%TO.N,unconnected-(XS1-Pin_21-Pad21)*%
X70104000Y-93472000D03*
%TO.P,XS1,22,Pin_22*%
%TO.N,unconnected-(XS1-Pin_22-Pad22)*%
X67564000Y-93472000D03*
%TO.P,XS1,23,Pin_23*%
%TO.N,unconnected-(XS1-Pin_23-Pad23)*%
X70104000Y-90932000D03*
%TO.P,XS1,24,Pin_24*%
%TO.N,unconnected-(XS1-Pin_24-Pad24)*%
X67564000Y-90932000D03*
%TO.P,XS1,25,Pin_25*%
%TO.N,unconnected-(XS1-Pin_25-Pad25)*%
X70104000Y-88392000D03*
%TO.P,XS1,26,Pin_26*%
%TO.N,unconnected-(XS1-Pin_26-Pad26)*%
X67564000Y-88392000D03*
%TO.P,XS1,27,Pin_27*%
%TO.N,unconnected-(XS1-Pin_27-Pad27)*%
X70104000Y-85852000D03*
%TO.P,XS1,28,Pin_28*%
%TO.N,unconnected-(XS1-Pin_28-Pad28)*%
X67564000Y-85852000D03*
%TO.P,XS1,29,Pin_29*%
%TO.N,unconnected-(XS1-Pin_29-Pad29)*%
X70104000Y-83312000D03*
%TO.P,XS1,30,Pin_30*%
%TO.N,unconnected-(XS1-Pin_30-Pad30)*%
X67564000Y-83312000D03*
%TO.P,XS1,31,Pin_31*%
%TO.N,Net-(DD5-B1)*%
X70104000Y-80772000D03*
%TO.P,XS1,32,Pin_32*%
%TO.N,unconnected-(XS1-Pin_32-Pad32)*%
X67564000Y-80772000D03*
%TO.P,XS1,33,Pin_33*%
%TO.N,Net-(DD5-B2)*%
X70104000Y-78232000D03*
%TO.P,XS1,34,Pin_34*%
%TO.N,unconnected-(XS1-Pin_34-Pad34)*%
X67564000Y-78232000D03*
%TO.P,XS1,35,Pin_35*%
%TO.N,unconnected-(XS1-Pin_35-Pad35)*%
X70104000Y-75692000D03*
%TO.P,XS1,36,Pin_36*%
%TO.N,unconnected-(XS1-Pin_36-Pad36)*%
X67564000Y-75692000D03*
%TO.P,XS1,37,Pin_37*%
%TO.N,unconnected-(XS1-Pin_37-Pad37)*%
X70104000Y-73152000D03*
%TO.P,XS1,38,Pin_38*%
%TO.N,unconnected-(XS1-Pin_38-Pad38)*%
X67564000Y-73152000D03*
%TO.P,XS1,39,Pin_39*%
%TO.N,unconnected-(XS1-Pin_39-Pad39)*%
X70104000Y-70612000D03*
%TO.P,XS1,40,Pin_40*%
%TO.N,unconnected-(XS1-Pin_40-Pad40)*%
X67564000Y-70612000D03*
%TD*%
D15*
%TO.N,Net-(DD1-PB4)*%
X88646000Y-91948000D03*
%TO.N,Net-(DD1-PB5)*%
X96774000Y-74041000D03*
%TO.N,Net-(DD1-PB4)*%
X87439500Y-73088500D03*
%TO.N,Net-(DD1-PB5)*%
X93899869Y-78986876D03*
%TO.N,+5V*%
X100965000Y-66421000D03*
%TO.N,GND*%
X102870000Y-73787000D03*
X101600000Y-73152000D03*
X97028000Y-82550000D03*
%TO.N,Net-(DD1-PB0)*%
X77470000Y-71628000D03*
%TO.N,+5V*%
X110109000Y-54737000D03*
%TO.N,Net-(DD1-PD3)*%
X104140000Y-60071000D03*
X104521000Y-63373000D03*
%TO.N,Net-(DD1-PC5)*%
X112522000Y-86868000D03*
X112522000Y-82169000D03*
%TO.N,Net-(DD1-PC1)*%
X100584000Y-79121000D03*
%TO.N,Net-(DD1-PC2)*%
X108458000Y-79375000D03*
%TO.N,GND*%
X99441000Y-111633000D03*
X100711000Y-64008000D03*
X95123000Y-84328000D03*
%TO.N,Net-(DD1-PC0)*%
X92710000Y-81661000D03*
X94488000Y-80010000D03*
%TO.N,Net-(DD1-PC2)*%
X111252000Y-86995000D03*
%TO.N,Net-(DD1-PD4)*%
X101981000Y-71501000D03*
%TO.N,Net-(DD3-TE)*%
X113792000Y-88138000D03*
%TO.N,Net-(DD3-SC)*%
X115062000Y-87630000D03*
%TO.N,Net-(DD5-GND)*%
X74803000Y-76073000D03*
%TD*%
D16*
%TO.N,Net-(DD1-PB4)*%
X88646000Y-90074635D02*
X87439500Y-88868135D01*
X87439500Y-88868135D02*
X87439500Y-73088500D01*
X88646000Y-91948000D02*
X88646000Y-90074635D01*
%TO.N,Net-(DD1-PB5)*%
X109232000Y-41249000D02*
X108832000Y-41649000D01*
X113164031Y-41249000D02*
X109232000Y-41249000D01*
X114072000Y-42156968D02*
X113164031Y-41249000D01*
X114072000Y-56743000D02*
X114072000Y-42156968D01*
X108832000Y-41649000D02*
X108832000Y-44189000D01*
X108832000Y-44189000D02*
X109982000Y-45339000D01*
X96774000Y-74041000D02*
X114072000Y-56743000D01*
%TO.N,Net-(DD1-PB4)*%
X112998346Y-43949000D02*
X111132000Y-43949000D01*
X113672000Y-44622654D02*
X112998346Y-43949000D01*
X113672000Y-55238000D02*
X113672000Y-44622654D01*
X95821500Y-73088500D02*
X113672000Y-55238000D01*
X111132000Y-43949000D02*
X109982000Y-42799000D01*
X87439500Y-73088500D02*
X95821500Y-73088500D01*
%TO.N,+5V*%
X95504000Y-69215000D02*
X95885000Y-68834000D01*
X81026000Y-70993000D02*
X95504000Y-70993000D01*
X76073000Y-75946000D02*
X81026000Y-70993000D01*
X95504000Y-70993000D02*
X95504000Y-69215000D01*
X76073000Y-88646000D02*
X76073000Y-75946000D01*
%TO.N,Net-(DD1-PB5)*%
X90213000Y-82673745D02*
X93899869Y-78986876D01*
X90213000Y-89101635D02*
X90213000Y-82673745D01*
X91313000Y-90201635D02*
X90213000Y-89101635D01*
X91313000Y-96266000D02*
X91313000Y-90201635D01*
%TO.N,+5V*%
X100965000Y-66421000D02*
X101854000Y-66421000D01*
%TO.N,GND*%
X102235000Y-73152000D02*
X102870000Y-73787000D01*
X101600000Y-73152000D02*
X102235000Y-73152000D01*
%TO.N,+5V*%
X95885000Y-66421000D02*
X100965000Y-66421000D01*
X95885000Y-68834000D02*
X95885000Y-66421000D01*
%TO.N,GND*%
X96901000Y-82550000D02*
X95123000Y-84328000D01*
X97028000Y-82550000D02*
X96901000Y-82550000D01*
%TO.N,Net-(DD1-PB0)*%
X78613000Y-109449346D02*
X78613000Y-96266000D01*
X70580346Y-117482000D02*
X78613000Y-109449346D01*
X69627654Y-117482000D02*
X70580346Y-117482000D01*
X68954000Y-116808346D02*
X69627654Y-117482000D01*
X68954000Y-115855654D02*
X68954000Y-116808346D01*
X68040346Y-114942000D02*
X68954000Y-115855654D01*
X67087654Y-114942000D02*
X68040346Y-114942000D01*
X66414000Y-113315654D02*
X66414000Y-114268346D01*
X67087654Y-112642000D02*
X66414000Y-113315654D01*
X66414000Y-114268346D02*
X67087654Y-114942000D01*
X70619000Y-112642000D02*
X67087654Y-112642000D01*
X74203000Y-109058000D02*
X70619000Y-112642000D01*
X77470000Y-71628000D02*
X74203000Y-74895000D01*
X74203000Y-74895000D02*
X74203000Y-109058000D01*
%TO.N,+5V*%
X103416000Y-64859000D02*
X101854000Y-66421000D01*
X103416000Y-59946471D02*
X103416000Y-64859000D01*
X108625471Y-54737000D02*
X103416000Y-59946471D01*
X110109000Y-54737000D02*
X108625471Y-54737000D01*
%TO.N,Net-(DD1-PD3)*%
X104140000Y-62992000D02*
X104521000Y-63373000D01*
X104140000Y-60071000D02*
X104140000Y-62992000D01*
%TO.N,Net-(DD1-PD4)*%
X77173000Y-95166000D02*
X76073000Y-96266000D01*
X79068635Y-95166000D02*
X77173000Y-95166000D01*
X79713000Y-95810365D02*
X79068635Y-95166000D01*
X79713000Y-113694000D02*
X79713000Y-95810365D01*
X78479000Y-114928000D02*
X79713000Y-113694000D01*
X78479000Y-119094346D02*
X78479000Y-114928000D01*
X79952654Y-120568000D02*
X78479000Y-119094346D01*
X107811031Y-120568000D02*
X79952654Y-120568000D01*
X115662000Y-112717031D02*
X107811031Y-120568000D01*
X115662000Y-84460471D02*
X115662000Y-112717031D01*
X104318529Y-73117000D02*
X115662000Y-84460471D01*
X103597000Y-73117000D02*
X104318529Y-73117000D01*
%TO.N,Net-(DD1-PC5)*%
X112522000Y-82169000D02*
X112522000Y-86868000D01*
%TO.N,Net-(DD1-PC1)*%
X100584000Y-79996000D02*
X92753000Y-87827000D01*
X100584000Y-79121000D02*
X100584000Y-79996000D01*
%TO.N,Net-(DD1-PC2)*%
X109855000Y-80772000D02*
X108458000Y-79375000D01*
X111252000Y-80772000D02*
X109855000Y-80772000D01*
%TO.N,GND*%
X101111000Y-64408000D02*
X100711000Y-64008000D01*
X97409000Y-118618000D02*
X99949000Y-118618000D01*
X94869000Y-118618000D02*
X97409000Y-118618000D01*
X112522000Y-47879000D02*
X103016000Y-57385000D01*
X103124000Y-111633000D02*
X107569000Y-116078000D01*
X92329000Y-118618000D02*
X94869000Y-118618000D01*
X102781686Y-64408000D02*
X101111000Y-64408000D01*
X103016000Y-57385000D02*
X103016000Y-64173686D01*
X105029000Y-118618000D02*
X107569000Y-118618000D01*
X99949000Y-118618000D02*
X102489000Y-118618000D01*
X99441000Y-111633000D02*
X103124000Y-111633000D01*
X107569000Y-118618000D02*
X107569000Y-116078000D01*
X103016000Y-64173686D02*
X102781686Y-64408000D01*
X102489000Y-118618000D02*
X105029000Y-118618000D01*
%TO.N,Net-(DD1-PC1)*%
X96393000Y-96266000D02*
X96393000Y-92741635D01*
X92753000Y-89101635D02*
X92753000Y-87827000D01*
X96393000Y-92741635D02*
X92753000Y-89101635D01*
%TO.N,Net-(DD1-PC0)*%
X92710000Y-81661000D02*
X94361000Y-80010000D01*
X94361000Y-80010000D02*
X94488000Y-80010000D01*
%TO.N,Net-(DD1-PC2)*%
X111252000Y-86995000D02*
X111252000Y-80772000D01*
%TO.N,Net-(DD1-PD4)*%
X103597000Y-73117000D02*
X101981000Y-71501000D01*
X79952654Y-120568000D02*
X107811032Y-120568000D01*
X107811032Y-120568000D02*
X115662000Y-112717032D01*
%TO.N,Net-(DD1-PB4)*%
X111132000Y-41649000D02*
X109982000Y-42799000D01*
X113672000Y-42322654D02*
X112998346Y-41649000D01*
X113672000Y-55422686D02*
X113672000Y-42322654D01*
X112998346Y-41649000D02*
X111132000Y-41649000D01*
%TO.N,Net-(DD3-TE)*%
X113792000Y-88138000D02*
X105156000Y-88138000D01*
X105156000Y-88138000D02*
X99949000Y-82931000D01*
%TO.N,Net-(DD3-SC)*%
X113543471Y-87538000D02*
X113486471Y-87595000D01*
X113486471Y-87595000D02*
X110963000Y-87595000D01*
X115062000Y-87630000D02*
X114970000Y-87538000D01*
X114970000Y-87538000D02*
X113543471Y-87538000D01*
X110963000Y-87595000D02*
X106299000Y-82931000D01*
%TO.N,Net-(XS2-Pin_9)*%
X89789000Y-116078000D02*
X89789000Y-116205000D01*
%TO.N,Net-(DD4-B6)*%
X93853000Y-88646000D02*
X95353000Y-87146000D01*
X95353000Y-87146000D02*
X99554321Y-87146000D01*
X108719000Y-119094346D02*
X107645346Y-120168000D01*
X107645346Y-120168000D02*
X83719000Y-120168000D01*
X83719000Y-120168000D02*
X82169000Y-118618000D01*
X99554321Y-87146000D02*
X108719000Y-96310679D01*
X108719000Y-96310679D02*
X108719000Y-119094346D01*
%TO.N,Net-(DD4-B2)*%
X84793000Y-89746000D02*
X83693000Y-88646000D01*
X82169000Y-116078000D02*
X84793000Y-113454000D01*
X84793000Y-113454000D02*
X84793000Y-89746000D01*
%TO.N,Net-(DD4-B5)*%
X81019000Y-117228000D02*
X87725346Y-117228000D01*
X92413000Y-111587654D02*
X92413000Y-89746000D01*
X88399000Y-116554346D02*
X88399000Y-115601654D01*
X79629000Y-118618000D02*
X81019000Y-117228000D01*
X92413000Y-89746000D02*
X91313000Y-88646000D01*
X87725346Y-117228000D02*
X88399000Y-116554346D01*
X88399000Y-115601654D02*
X92413000Y-111587654D01*
%TO.N,Net-(DD4-B8)*%
X87249000Y-118618000D02*
X88639000Y-117228000D01*
X90980170Y-116513176D02*
X90980170Y-113586170D01*
X90265346Y-117228000D02*
X90980170Y-116513176D01*
X90980170Y-113586170D02*
X97833000Y-106733340D01*
X97833000Y-89746000D02*
X98933000Y-88646000D01*
X97833000Y-106733340D02*
X97833000Y-89746000D01*
X88639000Y-117228000D02*
X90265346Y-117228000D01*
%TO.N,Net-(DD4-B4)*%
X87249000Y-116078000D02*
X89873000Y-113454000D01*
X89873000Y-89746000D02*
X88773000Y-88646000D01*
X89873000Y-113454000D02*
X89873000Y-89746000D01*
%TO.N,Net-(DD4-B7)*%
X96019000Y-116554346D02*
X96019000Y-111202000D01*
X99388635Y-87546000D02*
X97493000Y-87546000D01*
X97493000Y-87546000D02*
X96393000Y-88646000D01*
X84709000Y-118618000D02*
X85859000Y-119768000D01*
X90939000Y-119094346D02*
X90939000Y-118141654D01*
X100033000Y-107188000D02*
X100033000Y-88190365D01*
X90939000Y-118141654D02*
X91852654Y-117228000D01*
X96019000Y-111202000D02*
X100033000Y-107188000D01*
X85859000Y-119768000D02*
X90265346Y-119768000D01*
X100033000Y-88190365D02*
X99388635Y-87546000D01*
X91852654Y-117228000D02*
X95345346Y-117228000D01*
X90265346Y-119768000D02*
X90939000Y-119094346D01*
X95345346Y-117228000D02*
X96019000Y-116554346D01*
%TO.N,Net-(DD4-B1)*%
X82253000Y-113454000D02*
X82253000Y-89746000D01*
X79629000Y-116078000D02*
X82253000Y-113454000D01*
X82253000Y-89746000D02*
X81153000Y-88646000D01*
%TO.N,Net-(DD4-B3)*%
X87333000Y-113454000D02*
X87333000Y-89746000D01*
X84709000Y-116078000D02*
X87333000Y-113454000D01*
X87333000Y-89746000D02*
X86233000Y-88646000D01*
%TO.N,Net-(DD5-GND)*%
X68714000Y-114942000D02*
X67564000Y-113792000D01*
X74803000Y-110719346D02*
X70580346Y-114942000D01*
X74803000Y-76073000D02*
X74803000Y-110719346D01*
X70580346Y-114942000D02*
X68714000Y-114942000D01*
%TD*%
M02*
