%TF.GenerationSoftware,KiCad,Pcbnew,9.0.8*%
%TF.CreationDate,2026-04-24T00:15:39+07:00*%
%TF.ProjectId,______,14181f1b-1e1c-42e6-9b69-6361645f7063,rev?*%
%TF.SameCoordinates,Original*%
%TF.FileFunction,Soldermask,Bot*%
%TF.FilePolarity,Negative*%
%FSLAX46Y46*%
G04 Gerber Fmt 4.6, Leading zero omitted, Abs format (unit mm)*
G04 Created by KiCad (PCBNEW 9.0.8) date 2026-04-24 00:15:39*
%MOMM*%
%LPD*%
G01*
G04 APERTURE LIST*
G04 Aperture macros list*
%AMRoundRect*
0 Rectangle with rounded corners*
0 $1 Rounding radius*
0 $2 $3 $4 $5 $6 $7 $8 $9 X,Y pos of 4 corners*
0 Add a 4 corners polygon primitive as box body*
4,1,4,$2,$3,$4,$5,$6,$7,$8,$9,$2,$3,0*
0 Add four circle primitives for the rounded corners*
1,1,$1+$1,$2,$3*
1,1,$1+$1,$4,$5*
1,1,$1+$1,$6,$7*
1,1,$1+$1,$8,$9*
0 Add four rect primitives between the rounded corners*
20,1,$1+$1,$2,$3,$4,$5,0*
20,1,$1+$1,$4,$5,$6,$7,0*
20,1,$1+$1,$6,$7,$8,$9,0*
20,1,$1+$1,$8,$9,$2,$3,0*%
G04 Aperture macros list end*
%ADD10RoundRect,0.250000X0.550000X-0.550000X0.550000X0.550000X-0.550000X0.550000X-0.550000X-0.550000X0*%
%ADD11C,1.600000*%
%ADD12R,1.700000X1.700000*%
%ADD13C,1.700000*%
%ADD14C,1.500000*%
G04 APERTURE END LIST*
D10*
%TO.C,DD4*%
X76073000Y-96266000D03*
D11*
X78613000Y-96266000D03*
X81153000Y-96266000D03*
X83693000Y-96266000D03*
X86233000Y-96266000D03*
X88773000Y-96266000D03*
X91313000Y-96266000D03*
X93853000Y-96266000D03*
X96393000Y-96266000D03*
X98933000Y-96266000D03*
X98933000Y-88646000D03*
X96393000Y-88646000D03*
X93853000Y-88646000D03*
X91313000Y-88646000D03*
X88773000Y-88646000D03*
X86233000Y-88646000D03*
X83693000Y-88646000D03*
X81153000Y-88646000D03*
X78613000Y-88646000D03*
X76073000Y-88646000D03*
%TD*%
D12*
%TO.C,J2*%
X116332000Y-82677000D03*
%TD*%
%TO.C,XP1*%
X109982000Y-42799000D03*
D13*
X112522000Y-42799000D03*
X109982000Y-45339000D03*
X112522000Y-45339000D03*
X109982000Y-47879000D03*
X112522000Y-47879000D03*
%TD*%
D12*
%TO.C,J1*%
X99949000Y-82931000D03*
%TD*%
D14*
%TO.C,BQ1*%
X91032000Y-63119000D03*
X95912000Y-63119000D03*
%TD*%
D12*
%TO.C,J3*%
X106299000Y-82931000D03*
%TD*%
%TO.C,XS2*%
X79629000Y-116078000D03*
D13*
X79629000Y-118618000D03*
X82169000Y-116078000D03*
X82169000Y-118618000D03*
X84709000Y-116078000D03*
X84709000Y-118618000D03*
X87249000Y-116078000D03*
X87249000Y-118618000D03*
X89789000Y-116078000D03*
X89789000Y-118618000D03*
X92329000Y-116078000D03*
X92329000Y-118618000D03*
X94869000Y-116078000D03*
X94869000Y-118618000D03*
X97409000Y-116078000D03*
X97409000Y-118618000D03*
X99949000Y-116078000D03*
X99949000Y-118618000D03*
X102489000Y-116078000D03*
X102489000Y-118618000D03*
X105029000Y-116078000D03*
X105029000Y-118618000D03*
X107569000Y-116078000D03*
X107569000Y-118618000D03*
%TD*%
D12*
%TO.C,XS1*%
X70104000Y-118872000D03*
D13*
X67564000Y-118872000D03*
X70104000Y-116332000D03*
X67564000Y-116332000D03*
X70104000Y-113792000D03*
X67564000Y-113792000D03*
X70104000Y-111252000D03*
X67564000Y-111252000D03*
X70104000Y-108712000D03*
X67564000Y-108712000D03*
X70104000Y-106172000D03*
X67564000Y-106172000D03*
X70104000Y-103632000D03*
X67564000Y-103632000D03*
X70104000Y-101092000D03*
X67564000Y-101092000D03*
X70104000Y-98552000D03*
X67564000Y-98552000D03*
X70104000Y-96012000D03*
X67564000Y-96012000D03*
X70104000Y-93472000D03*
X67564000Y-93472000D03*
X70104000Y-90932000D03*
X67564000Y-90932000D03*
X70104000Y-88392000D03*
X67564000Y-88392000D03*
X70104000Y-85852000D03*
X67564000Y-85852000D03*
X70104000Y-83312000D03*
X67564000Y-83312000D03*
X70104000Y-80772000D03*
X67564000Y-80772000D03*
X70104000Y-78232000D03*
X67564000Y-78232000D03*
X70104000Y-75692000D03*
X67564000Y-75692000D03*
X70104000Y-73152000D03*
X67564000Y-73152000D03*
X70104000Y-70612000D03*
X67564000Y-70612000D03*
%TD*%
M02*
