M48
; DRILL file {KiCad 9.0.8} date 2026-04-24T00:15:22+0700
; FORMAT={-:-/ absolute / metric / decimal}
; #@! TF.CreationDate,2026-04-24T00:15:22+07:00
; #@! TF.GenerationSoftware,Kicad,Pcbnew,9.0.8
; #@! TF.FileFunction,Plated,1,2,PTH
FMAT,2
METRIC
; #@! TA.AperFunction,Plated,PTH,ViaDrill
T1C0.300
; #@! TA.AperFunction,Plated,PTH,ComponentDrill
T2C0.800
; #@! TA.AperFunction,Plated,PTH,ComponentDrill
T3C1.000
%
G90
G05
T1
X74.803Y-76.073
X77.47Y-71.628
X87.439Y-73.088
X88.646Y-91.948
X92.71Y-81.661
X93.9Y-78.987
X94.488Y-80.01
X95.123Y-84.328
X96.774Y-74.041
X97.028Y-82.55
X99.441Y-111.633
X100.584Y-79.121
X100.711Y-64.008
X100.965Y-66.421
X101.6Y-73.152
X101.981Y-71.501
X102.87Y-73.787
X104.14Y-60.071
X104.521Y-63.373
X108.458Y-79.375
X110.109Y-54.737
X111.252Y-86.995
X112.522Y-82.169
X112.522Y-86.868
X113.792Y-88.138
X115.062Y-87.63
T2
X76.073Y-88.646
X76.073Y-96.266
X78.613Y-88.646
X78.613Y-96.266
X81.153Y-88.646
X81.153Y-96.266
X83.693Y-88.646
X83.693Y-96.266
X86.233Y-88.646
X86.233Y-96.266
X88.773Y-88.646
X88.773Y-96.266
X91.032Y-63.119
X91.313Y-88.646
X91.313Y-96.266
X93.853Y-88.646
X93.853Y-96.266
X95.912Y-63.119
X96.393Y-88.646
X96.393Y-96.266
X98.933Y-88.646
X98.933Y-96.266
T3
X67.564Y-70.612
X67.564Y-73.152
X67.564Y-75.692
X67.564Y-78.232
X67.564Y-80.772
X67.564Y-83.312
X67.564Y-85.852
X67.564Y-88.392
X67.564Y-90.932
X67.564Y-93.472
X67.564Y-96.012
X67.564Y-98.552
X67.564Y-101.092
X67.564Y-103.632
X67.564Y-106.172
X67.564Y-108.712
X67.564Y-111.252
X67.564Y-113.792
X67.564Y-116.332
X67.564Y-118.872
X70.104Y-70.612
X70.104Y-73.152
X70.104Y-75.692
X70.104Y-78.232
X70.104Y-80.772
X70.104Y-83.312
X70.104Y-85.852
X70.104Y-88.392
X70.104Y-90.932
X70.104Y-93.472
X70.104Y-96.012
X70.104Y-98.552
X70.104Y-101.092
X70.104Y-103.632
X70.104Y-106.172
X70.104Y-108.712
X70.104Y-111.252
X70.104Y-113.792
X70.104Y-116.332
X70.104Y-118.872
X79.629Y-116.078
X79.629Y-118.618
X82.169Y-116.078
X82.169Y-118.618
X84.709Y-116.078
X84.709Y-118.618
X87.249Y-116.078
X87.249Y-118.618
X89.789Y-116.078
X89.789Y-118.618
X92.329Y-116.078
X92.329Y-118.618
X94.869Y-116.078
X94.869Y-118.618
X97.409Y-116.078
X97.409Y-118.618
X99.949Y-82.931
X99.949Y-116.078
X99.949Y-118.618
X102.489Y-116.078
X102.489Y-118.618
X105.029Y-116.078
X105.029Y-118.618
X106.299Y-82.931
X107.569Y-116.078
X107.569Y-118.618
X109.982Y-42.799
X109.982Y-45.339
X109.982Y-47.879
X112.522Y-42.799
X112.522Y-45.339
X112.522Y-47.879
X116.332Y-82.677
M30
